<svg xmlns="http://www.w3.org/2000/svg" viewBox="0 0 460.72 122.18"><defs><style>.cls-1{fill:#ee355f;}.cls-2{fill:#fff;}</style></defs><title>Asset 2newest-new-logo</title><g id="Layer_2" data-name="Layer 2"><g id="Layer_1-2" data-name="Layer 1"><path class="cls-1" d="M379.13,27.23c-6.73-.28-11.52.91-15.45,3-4.46,2.34-13,8.6-13,23.14V87.7a8.88,8.88,0,1,0,17.76,0V55.49c0-5.94,3.8-10.46,10.72-10.36a8.63,8.63,0,0,0,9.13-8.88C388.26,31,384.3,27.45,379.13,27.23Z"/><path class="cls-1" d="M250.29,96.62a9,9,0,0,1-9.09-8.95V14a9,9,0,0,1,18,0V87.67A9,9,0,0,1,250.29,96.62Z"/><path class="cls-1" d="M425.62,26.82a35.24,35.24,0,0,1,0,70.48,36.05,36.05,0,0,1-17.48-4.68v16.93a8.9,8.9,0,0,1-8.95,8.81,8.58,8.58,0,0,1-8.67-8.4V62.06A35.2,35.2,0,0,1,425.62,26.82Zm0,17.76a17.39,17.39,0,0,0-17.48,17.35,17.48,17.48,0,1,0,35,0A17.39,17.39,0,0,0,425.62,44.58Z"/><path class="cls-1" d="M193.85,97.58A35.07,35.07,0,0,0,229,62.48h0a35.22,35.22,0,0,0-35.1-35.38,36.06,36.06,0,0,0-17.48,4.68V14.85A9,9,0,0,0,167.42,6c-4.82,0-8.67,3.3-8.67,8.4v47.9A35.18,35.18,0,0,0,193.85,97.58Zm0-17.76a17.39,17.39,0,0,1-17.48-17.34,17.48,17.48,0,1,1,35,0A17.39,17.39,0,0,1,193.85,79.82Z"/><path class="cls-1" d="M327.59,59.57c4.62-3.28,9-7.19,8.95-10.93,0-4.73-4.39-10.17-9.32-14a34.94,34.94,0,0,0-33.07-5.44c-24.09,8.83-30.58,40.83-12.5,58.36,15.63,15.15,40.93,13.11,54.88-4.47,2.69-3.38,1.6-8.63-2-11.32s-7.75-2.16-11.23,1.77c-8.58,9.34-24.56,10.6-32.56-.43a93,93,0,0,0,18.33-4.55A80.87,80.87,0,0,0,327.59,59.57ZM299.21,42.5c8.47-3.13,17.37,0,21,6.41a85.22,85.22,0,0,1-15.51,7.58A81.44,81.44,0,0,1,286.9,61h0C286,53.73,290.75,45.63,299.21,42.5Z"/><path class="cls-1" d="M79,97.73c15.32-5.58,47.71,5.54,51.82-16.74,3.39-18.37-18.6-19.81-21.22-33.58-2.66-14,9.57-24.3,1.17-34.72C99.4-1.43,85.44,17.86,72.66,12.31,64.37,8.7,56-3.49,43.79,1S33,20.12,29,28.21C22.74,40.69-.35,34.87,0,53,.27,66.4,16.26,66.44,23.22,78.86c6.85,12.23-9.08,27.47,5.33,39.37C46,132.65,63.68,103.32,79,97.74"/><path class="cls-2" d="M70.48,74.3c11-4,17.38-15.36,16.58-27.27a4.39,4.39,0,0,0-6.79-3.34,85.67,85.67,0,0,1-17.74,8.79A85.67,85.67,0,0,1,43.3,57.15a4.39,4.39,0,0,0-3.05,6.92C47.3,73.71,59.43,78.32,70.48,74.3Z"/></g></g></svg>